<svg xmlns="http://www.w3.org/2000/svg" viewBox="0 0 633.93 635.56"><defs><style>.cls-1{opacity:0.5;}.cls-2{fill:#010101;}</style></defs><title>Asset 7</title><g id="Layer_2" data-name="Layer 2"><g id="Layer_1-2" data-name="Layer 1"><g class="cls-1"><path class="cls-2" d="M.15,397.9C13.2,396.15,26.06,393.31,39,391c2.53-.45,3.23-1.61,3.72-3.82,2.61-11.67,2.59-11.55-7.91-17.9-7.64-4.62-15-9.62-22.61-14.37-2.18-1.36-2.92-2.74-1.82-5.35q6.38-15.14,12.36-30.43c1.13-2.87,3-2.54,5.3-2.06,11.06,2.33,22.17,4.43,33.17,7,3.43.82,5.14.06,7-2.78,5.68-8.83,5.79-8.76-.28-17.5-5.39-7.75-10.72-15.54-16.2-23.22-1.39-1.94-1.77-3.32.13-5.2C59.4,267.93,67,260.5,74.26,252.73c3-3.28,5.26-2.11,8.07-.13,8.83,6.2,17.8,12.18,26.53,18.51,2.76,2,4.51,1.77,7.54.19,7.33-3.81,9.34-8.36,6.5-16.53-3-8.54-3.83-17.79-6.05-26.62-.91-3.61,0-4.9,3.34-6.19,9.59-3.7,19.11-7.64,28.45-11.92,3.34-1.53,4.74-.64,6.45,2.09,5.81,9.29,11.95,18.37,17.68,27.71,2,3.2,4,4.31,7.77,3.44,9.9-2.27,10-2.1,11.77-12,1.72-9.46,3.44-18.93,5-28.42.4-2.45,1.26-3.36,3.86-3.34,11,.11,22,.19,32.94-.15,3.72-.11,4,1.95,4.49,4.49,2,11.13,4.18,22.23,6,33.39.46,2.84,1.53,3.85,4.27,4.44,11.44,2.47,11.33,2.52,17.57-7.68,4.76-7.76,9.86-15.31,14.66-23,1.45-2.33,2.82-2.56,5.32-1.48,9.6,4.14,19.24,8.21,29,11.88,3.58,1.35,3.87,3.13,3.14,6.39-2.46,11-4.52,22.16-7,33.18-.64,2.8-.11,4.36,2.2,5.89,9.66,6.42,9.61,6.44,19.6-.71,7-5,14.1-9.82,21-14.89,2.64-1.94,4.58-1.94,6.94.48q10.77,11,21.85,21.74c2.38,2.3,2.57,4.21.63,6.93-6.37,8.9-12.44,18-18.85,26.9-2.14,3-2.64,5.14-.27,8.4,6.1,8.36,5.91,8.49,16,6.29,9.23-2,18.48-3.94,27.68-6.09,2.84-.66,4.17.08,5.25,2.8,3.93,9.87,8,19.69,12.29,29.4,1.29,2.88.53,4.14-1.83,5.65-9.94,6.37-19.71,13-29.7,19.28-2.14,1.34-2.54,2.54-2.15,4.86C394,389,394,389.11,404.77,391.12q13.44,2.5,26.93,4.73c3,.49,4.66,1.25,4.57,4.94-.26,10.64-.15,21.29.07,31.93.06,3-.87,4-3.81,4.53-11.32,1.9-22.57,4.21-33.88,6.14-2.75.47-4,1.54-4.58,4.31-2.4,11-2.53,11,6.78,17.05,7.49,4.86,15,9.67,22.63,14.33,3,1.84,4.18,3.38,2.42,7.18-4.23,9.18-8,18.58-11.54,28.06-1.38,3.75-3,4.2-6.63,3.3-10.64-2.6-21.45-4.56-32.11-7.11-3.66-.87-5.26.62-7.44,3.22-4.92,5.87-5.35,10.62.12,16.8,6,6.77,10.49,14.84,15.87,22.19,2.27,3.11,2.29,5.23-.67,8-7.46,7.09-14.63,14.48-21.8,21.85-1.83,1.88-3.19,2.36-5.55.66-8.9-6.39-18.08-12.38-26.9-18.88-3.69-2.73-6.74-3.13-10.2-.06a18,18,0,0,1-3.69,2.64c-3,1.54-3.68,3.46-2.84,6.93,2.68,11,4.76,22.11,7.25,33.13.61,2.7.35,4.46-2.45,5.59-9.85,3.95-19.7,7.9-29.45,12.1-3,1.29-4.47.58-6.1-2-6.12-9.68-12.55-19.17-18.59-28.9-1.66-2.67-3.24-3.08-6.15-2.45-10.45,2.27-10.57,2.13-12.51,12.69s-3.64,20.93-5.44,31.39l-39.54.12c-2-10.26-4-20.5-5.94-30.77-2.09-11.19-2.07-11.08-13.29-13.31-2.83-.57-4.35.14-5.79,2.47-6,9.74-12.23,19.37-18.26,29.11-1.57,2.54-3,3.39-6.13,2.05-9.89-4.27-19.94-8.19-30-12.15-2.28-.9-3-2.12-2.48-4.6q3.36-14.79,6.42-29.66c2.09-10.08,3.47-7-5.33-13.66-3.93-3-6.94-2.64-10.66.1-8.55,6.29-17.34,12.25-25.94,18.46-2.36,1.7-3.9,2.2-6.31-.34-7.44-7.83-15.18-15.37-23-22.87-1.84-1.78-2-3-.55-5.1,5.6-8,11-16.12,16.58-24.18,6.91-10.07,6.5-6,.29-16.2-2-3.35-4.25-4.34-8.24-3.32-10.78,2.73-21.71,4.87-32.55,7.41-2.52.59-4.05.38-5.12-2.31-4-10-8-20-12.32-29.89-1.34-3.06-.56-4.55,2-6.15,7.87-4.89,15.65-9.92,23.43-14.95,8.73-5.63,8.5-5.61,6.79-15.73-.67-4-2.52-5.13-6.18-5.75-12.29-2.06-24.52-4.49-36.78-6.78ZM218.41,331c-47.34-.23-86.15,38.54-86.32,86.24-.16,47.44,38.58,86.23,86.21,86.32a86.39,86.39,0,0,0,86.38-86.21C304.85,370.06,266.1,331.27,218.41,331Z" transform="translate(-0.15)"/><path class="cls-2" d="M634.08,158.82c-14.1,1.41-28,4.15-41.9,6.62-1.68.29-2.14,1.51-2.46,2.83a54.38,54.38,0,0,1-5.66,14c-2,3.59-1.33,6.11.86,9.07,6.73,9.07,13.23,18.31,20,27.37,2,2.68,2.53,4.5-.29,7.17q-11.39,10.8-22.13,22.25c-2.41,2.55-3.92,2-6.31.25-9.83-7.11-19.86-14-29.67-21.09a4.89,4.89,0,0,0-5.9-.51,94.19,94.19,0,0,1-13.47,5.72c-3.36,1.05-4.85,2.68-5.37,6.14-1.74,11.69-3.91,23.31-5.62,35-.47,3.25-1.72,4.08-4.84,4-10.64-.16-21.29-.1-31.93.08-2.78.05-3.74-.82-4.18-3.56-1.92-12.17-4.16-24.29-6.13-36.45-.4-2.47-1.36-3.79-3.83-4.59-4.32-1.4-8.86-2.68-12.62-5.09-4.34-2.78-7.35-1.34-10.77,1.17-9,6.59-18.07,13-27,19.64-2.42,1.8-3.92,2.21-6.3-.29q-10.85-11.34-22.27-22.1c-2.77-2.61-2.44-4.29-.37-7.11,7.1-9.63,13.81-19.54,20.84-29.23,1.51-2.08,1.68-3.64.48-5.91-1.87-3.57-4-7.23-4.76-11.1-1.24-6.13-5-7.8-10.51-8.52-10.54-1.39-21-3.43-31.52-4.89-3.21-.45-4.14-1.6-4.09-4.8.18-10.64.11-21.28-.08-31.93,0-2.76.81-3.76,3.56-4.2,12-1.89,24-4.06,36-6.06,2.68-.45,4.41-1.38,5.25-4.39A44.46,44.46,0,0,1,406,96.26c2.79-4.31,1.44-7.28-1.16-10.77-6.65-8.92-13-18.06-19.66-27-1.8-2.41-2.22-3.91.26-6.29C393,45,400.38,37.58,407.53,30c2.67-2.85,4.49-2.26,7.17-.31,9.68,7,19.54,13.81,29.2,20.86,2.14,1.56,3.78,1.47,6,.39,5-2.47,9.95-5,15.4-6.35,1.33-.33,2.54-.83,2.81-2.49,2.33-14,5.1-27.83,6.37-41.94L515,0c1.63,13.91,4.09,27.68,6.75,41.43a3.37,3.37,0,0,0,2.88,3c5.44,1.34,10.44,3.81,15.42,6.26a5,5,0,0,0,5.94-.48c9.63-7.1,19.52-13.83,29.07-21,3.16-2.38,5-1.95,7.55.68q10.36,10.71,21.16,21c2.68,2.56,3,4.42.66,7.54-6.7,8.87-12.95,18.1-19.53,27.06-2.4,3.26-3.21,6-.9,9.93a47.34,47.34,0,0,1,5.49,13.53,3.34,3.34,0,0,0,3,2.86c13.76,2.54,27.55,5,41.47,6.49ZM455.6,138.94a39.57,39.57,0,1,0,39.54-39.6A39.65,39.65,0,0,0,455.6,138.94Z" transform="translate(-0.15)"/></g></g></g></svg>